<svg width="292" height="61" viewBox="0 0 292 61" fill="none" xmlns="http://www.w3.org/2000/svg">
<path d="M11.8667 51.4084C11.8667 51.1811 11.8667 50.9765 11.8667 50.7946C11.9121 50.6128 12.0258 50.4309 12.2077 50.249C12.7533 49.567 13.3671 48.8623 14.0491 48.1349C14.7311 47.3619 15.3903 46.6117 16.0268 45.8843C16.6634 45.1114 17.2544 44.3157 17.8 43.4973C18.3456 42.6789 18.8003 41.8605 19.164 41.0421V40.6329L10.2299 42.4743H9.20691C8.57038 42.4743 7.77472 42.4288 6.81993 42.3379C5.91061 42.247 5.00128 42.0651 4.09196 41.7923C3.2281 41.4741 2.47791 41.0421 1.84138 40.4965C1.25032 39.9509 0.954791 39.2235 0.954791 38.3142C1.00026 37.2684 1.54585 36.109 2.59157 34.836C3.6373 33.5629 4.86488 32.3126 6.27434 31.085C7.68379 29.8574 9.09324 28.7208 10.5027 27.6751C11.9576 26.6293 13.117 25.8109 13.9809 25.2199C14.9357 24.6743 16.0723 24.2424 17.3908 23.9241C18.7093 23.5604 19.9142 23.3785 21.0054 23.3785C21.9147 23.3785 22.7104 23.5604 23.3924 23.9241C24.0744 24.2424 24.4154 24.9016 24.4154 25.9019C24.4154 26.3111 24.3699 26.6975 24.279 27.0613C24.2335 27.425 23.9607 27.6751 23.4606 27.8115C22.0056 27.6751 20.6417 27.7887 19.3686 28.1525C18.0956 28.4707 16.8907 28.9708 15.754 29.6528C14.6174 30.3348 13.5489 31.1532 12.5487 32.108C11.5484 33.0173 10.5709 33.9721 9.6161 34.9724C9.34331 35.2907 9.00231 35.7453 8.59311 36.3364C8.18392 36.882 7.97932 37.2002 7.97932 37.2912V37.3594C9.16144 37.3594 10.3208 37.2457 11.4575 37.0184C12.6396 36.791 13.799 36.5637 14.9357 36.3364C16.1178 36.0636 17.2772 35.8135 18.4138 35.5862C19.5959 35.3589 20.8008 35.2452 22.0284 35.2452C22.483 35.2452 22.9832 35.2907 23.5288 35.3816C24.0744 35.4271 24.5745 35.5635 25.0292 35.7908C25.5293 36.0181 25.9157 36.3364 26.1885 36.7456C26.5068 37.1093 26.6659 37.5867 26.6659 38.1778C26.6659 39.0416 26.4386 39.8827 25.9839 40.7011C25.5747 41.4741 24.9382 42.4288 24.0744 43.5655C23.256 44.6567 22.1875 45.9979 20.869 47.5893C19.5959 49.1806 18.0728 51.2266 16.2996 53.7272C16.2087 53.8636 15.9814 53.9545 15.6176 54C15.2994 54.0455 15.0266 54.0682 14.7993 54.0682C14.1627 54.0682 13.5035 53.7954 12.8215 53.2498C12.1849 52.7042 11.8667 52.0904 11.8667 51.4084ZM43.1702 47.5211C42.8519 48.2031 42.5336 48.9533 42.2154 49.7716C41.8971 50.5446 41.5334 51.2493 41.1242 51.8858C40.715 52.5223 40.2149 53.0679 39.6238 53.5226C39.0327 53.9318 38.2826 54.1364 37.3732 54.1364C35.7819 54.1364 34.4634 53.7499 33.4177 52.977C32.3719 52.1586 31.5081 51.1584 30.8261 49.9762C30.1896 48.7487 29.7349 47.4301 29.4621 46.0207C29.1893 44.6112 29.0529 43.2927 29.0529 42.0651L29.5985 25.5609C29.553 25.2426 29.6212 24.9244 29.8031 24.6061C30.0304 24.2424 30.3032 23.9241 30.6215 23.6513C30.9852 23.333 31.3717 23.083 31.7809 22.9011C32.2355 22.7192 32.6447 22.6283 33.0085 22.6283C34.0542 22.6283 34.9408 22.9693 35.6682 23.6513C36.3957 24.2878 36.7594 25.129 36.7594 26.1747V26.8567C36.2593 27.6751 35.8274 28.7435 35.4636 30.062C35.0999 31.3806 34.8044 32.8127 34.5771 34.3586C34.3952 35.859 34.2815 37.4048 34.2361 38.9961C34.1906 40.5875 34.2361 42.0424 34.3725 43.3609C34.5543 44.6794 34.8271 45.8161 35.1908 46.7709C35.5546 47.6802 36.032 48.2258 36.623 48.4077C36.8504 48.4077 37.1914 48.294 37.646 48.0667C38.1462 47.8393 38.669 47.4074 39.2146 46.7709C39.7602 46.1343 40.3285 45.2478 40.9196 44.1111C41.5107 42.929 42.0335 41.3831 42.4882 39.4735C42.9428 37.564 43.2838 35.2452 43.5112 32.5172C43.7385 29.7892 43.8067 26.5157 43.7158 22.6965C43.8976 22.1964 44.1477 21.9236 44.466 21.8781C44.8297 21.8327 45.1934 21.8099 45.5571 21.8099C45.9663 21.8099 46.3073 21.8327 46.5801 21.8781C46.8529 21.8781 47.1485 22.0373 47.4667 22.3555C47.6941 22.5828 47.9441 22.9238 48.2169 23.3785C48.4897 23.8332 48.6261 24.0832 48.6261 24.1287L49.7855 54.341C49.7855 55.023 49.6036 55.5913 49.2399 56.046C48.8762 56.5006 48.3533 56.728 47.6713 56.728C47.444 56.728 47.1712 56.7052 46.8529 56.6598C46.5347 56.6143 46.2164 56.5234 45.8981 56.387C45.5799 56.2506 45.2843 56.0687 45.0116 55.8414C44.7842 55.6595 44.6478 55.4322 44.6024 55.1594L43.443 48.3395L43.1702 47.5211ZM63.8346 51.4084C63.8346 51.1811 63.8346 50.9765 63.8346 50.7946C63.88 50.6128 63.9937 50.4309 64.1756 50.249C64.7212 49.567 65.3349 48.8623 66.0169 48.1349C66.6989 47.3619 67.3582 46.6117 67.9947 45.8843C68.6312 45.1114 69.2223 44.3157 69.7679 43.4973C70.3135 42.6789 70.7682 41.8605 71.1319 41.0421V40.6329L62.1978 42.4743H61.1748C60.5383 42.4743 59.7426 42.4288 58.7878 42.3379C57.8785 42.247 56.9692 42.0651 56.0598 41.7923C55.196 41.4741 54.4458 41.0421 53.8093 40.4965C53.2182 39.9509 52.9227 39.2235 52.9227 38.3142C52.9681 37.2684 53.5137 36.109 54.5595 34.836C55.6052 33.5629 56.8328 32.3126 58.2422 31.085C59.6517 29.8574 61.0611 28.7208 62.4706 27.6751C63.9255 26.6293 65.0849 25.8109 65.9487 25.2199C66.9035 24.6743 68.0402 24.2424 69.3587 23.9241C70.6772 23.5604 71.8821 23.3785 72.9733 23.3785C73.8826 23.3785 74.6783 23.5604 75.3602 23.9241C76.0422 24.2424 76.3832 24.9016 76.3832 25.9019C76.3832 26.3111 76.3378 26.6975 76.2468 27.0613C76.2014 27.425 75.9286 27.6751 75.4284 27.8115C73.9735 27.6751 72.6095 27.7887 71.3365 28.1525C70.0634 28.4707 68.8586 28.9708 67.7219 29.6528C66.5853 30.3348 65.5168 31.1532 64.5166 32.108C63.5163 33.0173 62.5388 33.9721 61.584 34.9724C61.3112 35.2907 60.9702 35.7453 60.561 36.3364C60.1518 36.882 59.9472 37.2002 59.9472 37.2912V37.3594C61.1293 37.3594 62.2887 37.2457 63.4254 37.0184C64.6075 36.791 65.7669 36.5637 66.9035 36.3364C68.0857 36.0636 69.245 35.8135 70.3817 35.5862C71.5638 35.3589 72.7687 35.2452 73.9963 35.2452C74.4509 35.2452 74.9511 35.2907 75.4966 35.3816C76.0422 35.4271 76.5424 35.5635 76.997 35.7908C77.4972 36.0181 77.8836 36.3364 78.1564 36.7456C78.4747 37.1093 78.6338 37.5867 78.6338 38.1778C78.6338 39.0416 78.4065 39.8827 77.9518 40.7011C77.5426 41.4741 76.9061 42.4288 76.0422 43.5655C75.2238 44.6567 74.1554 45.9979 72.8369 47.5893C71.5638 49.1806 70.0407 51.2266 68.2675 53.7272C68.1766 53.8636 67.9493 53.9545 67.5855 54C67.2673 54.0455 66.9945 54.0682 66.7671 54.0682C66.1306 54.0682 65.4713 53.7954 64.7894 53.2498C64.1528 52.7042 63.8346 52.0904 63.8346 51.4084ZM82.6576 20.6505C82.7485 17.9226 82.6348 15.1946 82.3166 12.4666C81.9983 9.73864 81.8392 7.0334 81.8392 4.35089C81.8392 3.48704 82.0892 2.96417 82.5894 2.78231C83.0895 2.55498 83.6578 2.44131 84.2944 2.44131C85.2037 2.44131 85.9539 2.69138 86.5449 3.19151C87.136 3.69163 87.477 4.39636 87.5679 5.30568C87.9771 10.2615 88.2045 15.1719 88.2499 20.0367C88.3409 24.8562 88.6818 29.7438 89.2729 34.6996C90.6369 32.108 92.0463 29.9711 93.5013 28.2889C94.9562 26.6066 96.3429 25.4927 97.6614 24.9471C99.0254 24.4015 100.253 24.5152 101.344 25.2881C102.481 26.0155 103.39 27.4932 104.072 29.721C104.754 31.9034 105.163 34.9042 105.3 38.7234C105.436 42.497 105.209 47.2028 104.618 52.8406C104.299 52.8406 103.913 52.8633 103.458 52.9088C103.004 52.9088 102.549 52.8861 102.094 52.8406C101.685 52.7951 101.321 52.7042 101.003 52.5678C100.685 52.4314 100.503 52.1814 100.458 51.8176C100.821 48.4077 101.026 45.5433 101.071 43.2245C101.117 40.9057 101.049 38.9961 100.867 37.4958C100.685 35.9954 100.435 34.8587 100.117 34.0858C99.7983 33.2674 99.4573 32.6763 99.0936 32.3126C98.7299 31.9489 98.3662 31.767 98.0024 31.767C97.6842 31.7216 97.4341 31.7216 97.2522 31.767C96.252 32.1308 95.2972 33.0173 94.3879 34.4268C93.524 35.8362 92.7738 37.473 92.1373 39.3371C91.5008 41.2013 91.0234 43.179 90.7051 45.2705C90.4323 47.3165 90.3641 49.1578 90.5005 50.7946C90.455 51.1584 90.4096 51.5221 90.3641 51.8858C90.3186 52.2496 90.2277 52.5905 90.0913 52.9088C90.0004 53.2271 89.8185 53.4999 89.5457 53.7272C89.3184 53.9091 88.9546 54 88.4545 54C87.4997 54 86.7268 53.8409 86.1357 53.5226C85.5901 53.1589 85.1582 52.7042 84.84 52.1586C84.5672 51.613 84.3853 50.9765 84.2944 50.249C84.2489 49.5216 84.2716 48.7714 84.3626 47.9985L82.6576 20.6505ZM111.301 51.4084C110.847 46.8618 110.46 42.9744 110.142 39.7463C109.824 36.5182 109.551 33.813 109.324 31.6306C109.096 29.4482 108.892 27.7205 108.71 26.4475C108.573 25.129 108.46 24.1514 108.369 23.5149C108.278 22.8329 108.21 22.3782 108.164 22.1509C108.119 21.9236 108.096 21.7872 108.096 21.7417V21.4689C108.096 20.9688 108.301 20.5596 108.71 20.2413C109.164 19.8776 109.619 19.6957 110.074 19.6957C110.756 19.6957 111.483 19.8094 112.256 20.0367C113.074 20.2641 113.62 20.7415 113.893 21.4689C114.302 23.6968 114.575 25.9473 114.711 28.2207C114.893 30.494 115.03 32.7673 115.12 35.0406C115.257 37.2684 115.416 39.519 115.598 41.7923C115.825 44.0656 116.212 46.3162 116.757 48.5441C116.757 48.635 116.78 48.8169 116.825 49.0896C116.916 49.3624 116.985 49.658 117.03 49.9762C117.121 50.2945 117.189 50.59 117.235 50.8628C117.28 51.1356 117.303 51.3175 117.303 51.4084V51.5448C117.303 51.5903 117.326 51.6358 117.371 51.6812C117.371 52.2268 117.121 52.7724 116.621 53.318C116.121 53.8636 115.598 54.0909 115.052 54C114.916 53.9545 114.575 53.8863 114.029 53.7954C113.529 53.659 113.188 53.5453 113.006 53.4544C112.87 53.4089 112.688 53.318 112.461 53.1816C112.233 52.9997 112.006 52.8179 111.779 52.636C111.597 52.4541 111.438 52.2496 111.301 52.0222C111.165 51.7949 111.165 51.5903 111.301 51.4084ZM107.482 1.69112C107.482 1.37286 107.732 1.10006 108.232 0.872728C108.778 0.599931 109.187 0.463533 109.46 0.463533C110.142 0.463533 110.892 0.66813 111.71 1.07733C112.574 1.44106 113.006 2.00938 113.006 2.78231C113.006 3.55524 112.893 4.0781 112.665 4.35089C112.483 4.62369 112.006 4.76009 111.233 4.76009C110.415 4.76009 109.574 4.48729 108.71 3.9417C107.891 3.3961 107.482 2.64591 107.482 1.69112Z" fill="#F70A0A"/>
<path d="M166.867 51.4084C166.867 51.1811 166.867 50.9765 166.867 50.7946C166.912 50.6128 167.026 50.4309 167.208 50.249C167.753 49.567 168.367 48.8623 169.049 48.1349C169.731 47.3619 170.39 46.6117 171.027 45.8843C171.663 45.1114 172.254 44.3157 172.8 43.4973C173.346 42.6789 173.8 41.8605 174.164 41.0421V40.6329L165.23 42.4743H164.207C163.57 42.4743 162.775 42.4288 161.82 42.3379C160.911 42.247 160.001 42.0651 159.092 41.7923C158.228 41.4741 157.478 41.0421 156.841 40.4965C156.25 39.9509 155.955 39.2235 155.955 38.3142C156 37.2684 156.546 36.109 157.592 34.836C158.637 33.5629 159.865 32.3126 161.274 31.085C162.684 29.8574 164.093 28.7208 165.503 27.6751C166.958 26.6293 168.117 25.8109 168.981 25.2199C169.936 24.6743 171.072 24.2424 172.391 23.9241C173.709 23.5604 174.914 23.3785 176.005 23.3785C176.915 23.3785 177.71 23.5604 178.392 23.9241C179.074 24.2424 179.415 24.9016 179.415 25.9019C179.415 26.3111 179.37 26.6975 179.279 27.0613C179.233 27.425 178.961 27.6751 178.461 27.8115C177.006 27.6751 175.642 27.7887 174.369 28.1525C173.096 28.4707 171.891 28.9708 170.754 29.6528C169.617 30.3348 168.549 31.1532 167.549 32.108C166.548 33.0173 165.571 33.9721 164.616 34.9724C164.343 35.2907 164.002 35.7453 163.593 36.3364C163.184 36.882 162.979 37.2002 162.979 37.2912V37.3594C164.161 37.3594 165.321 37.2457 166.457 37.0184C167.64 36.791 168.799 36.5637 169.936 36.3364C171.118 36.0636 172.277 35.8135 173.414 35.5862C174.596 35.3589 175.801 35.2452 177.028 35.2452C177.483 35.2452 177.983 35.2907 178.529 35.3816C179.074 35.4271 179.574 35.5635 180.029 35.7908C180.529 36.0181 180.916 36.3364 181.189 36.7456C181.507 37.1093 181.666 37.5867 181.666 38.1778C181.666 39.0416 181.439 39.8827 180.984 40.7011C180.575 41.4741 179.938 42.4288 179.074 43.5655C178.256 44.6567 177.188 45.9979 175.869 47.5893C174.596 49.1806 173.073 51.2266 171.3 53.7272C171.209 53.8636 170.981 53.9545 170.618 54C170.299 54.0455 170.027 54.0682 169.799 54.0682C169.163 54.0682 168.503 53.7954 167.821 53.2498C167.185 52.7042 166.867 52.0904 166.867 51.4084ZM200.557 34.9724C200.148 35.6998 199.671 36.5864 199.125 37.6322C198.625 38.6324 198.079 39.7236 197.488 40.9057C196.897 42.0424 196.238 43.2018 195.51 44.3839C194.828 45.5206 194.101 46.5663 193.328 47.5211C192.601 48.4759 191.828 49.2942 191.009 49.9762C190.191 50.6128 189.35 50.9992 188.486 51.1356C188.122 51.1356 187.713 51.1129 187.258 51.0674C186.804 50.9765 186.349 50.8628 185.894 50.7264C185.44 50.5446 185.053 50.3172 184.735 50.0444C184.462 49.7262 184.326 49.317 184.326 48.8169C184.371 44.1793 184.712 39.9737 185.349 36.2C185.985 32.3808 186.985 29.039 188.349 26.1747C189.713 23.2648 191.464 20.8551 193.601 18.9455C195.738 17.036 198.329 15.672 201.376 14.8536C201.466 14.8536 201.626 14.8536 201.853 14.8536C202.126 14.8081 202.308 14.7854 202.399 14.7854C203.763 14.7399 204.74 15.3765 205.331 16.695C205.968 17.968 206.422 20.014 206.695 22.8329C207.013 25.6063 207.218 29.1982 207.309 33.6084C207.445 37.9732 207.695 43.2245 208.059 49.3624C208.195 49.8626 208.264 50.2945 208.264 50.6582C208.309 51.022 208.332 51.4539 208.332 51.954C208.332 52.636 208.127 53.1589 207.718 53.5226C207.309 53.8409 206.786 54 206.149 54C204.831 54 203.899 53.6363 203.353 52.9088C202.808 52.1814 202.444 51.2038 202.262 49.9762C202.262 49.9308 202.217 49.567 202.126 48.8851C202.08 48.2031 201.989 47.4301 201.853 46.5663C201.762 45.6569 201.671 44.7476 201.58 43.8383C201.489 42.929 201.421 42.1788 201.376 41.5877V41.3149C201.285 40.8603 201.216 40.2919 201.171 39.6099C201.171 38.9279 201.125 38.2687 201.035 37.6322C200.944 36.8592 200.875 36.0863 200.83 35.3134L200.557 34.9724ZM199.057 21.4689C197.829 22.3782 196.624 23.6058 195.442 25.1517C194.26 26.6975 193.419 28.1979 192.919 29.6528C192.691 30.3348 192.441 31.2669 192.169 32.449C191.896 33.6311 191.646 34.8133 191.418 35.9954C191.237 37.132 191.077 38.2005 190.941 39.2007C190.805 40.1555 190.736 40.7693 190.736 41.0421C190.782 41.0421 190.827 40.9967 190.873 40.9057C190.964 40.8148 191.032 40.7466 191.077 40.7011C193.896 37.9732 195.874 35.0406 197.011 31.9034C198.193 28.7208 198.875 25.2426 199.057 21.4689ZM231.315 51.6812C230.679 50.7719 230.133 49.5216 229.678 47.9303C229.269 46.2935 228.86 44.5885 228.451 42.8153C228.087 40.9967 227.746 39.2462 227.428 37.564C227.109 35.8362 226.768 34.4723 226.405 33.472C226.086 32.4263 225.723 31.8352 225.313 31.6988C224.904 31.5624 224.427 32.1762 223.881 33.5402L217.948 51.8176C217.721 52.4541 217.448 52.9088 217.13 53.1816C216.811 53.4089 216.288 53.5226 215.561 53.5226C215.197 53.5226 214.811 53.4771 214.402 53.3862C213.992 53.2498 213.606 53.0679 213.242 52.8406C212.878 52.6133 212.56 52.3405 212.287 52.0222C212.06 51.704 211.924 51.3402 211.878 50.931C212.015 50.3854 212.128 49.3852 212.219 47.9303C212.356 46.4753 212.447 44.7931 212.492 42.8835C212.537 40.9739 212.56 38.9734 212.56 36.882C212.606 34.7451 212.606 32.7673 212.56 30.9486C212.56 29.0845 212.537 27.4932 212.492 26.1747C212.447 24.8107 212.401 23.9241 212.356 23.5149C212.356 23.0602 212.356 22.6056 212.356 22.1509C212.401 21.6508 212.469 21.1961 212.56 20.7869C212.697 20.3777 212.901 20.0595 213.174 19.8321C213.492 19.5593 213.97 19.4229 214.606 19.4229C215.47 19.4229 216.266 19.7867 216.993 20.5141C217.766 21.2416 218.153 22.0145 218.153 22.8329C218.153 24.015 218.084 25.1972 217.948 26.3793C217.857 27.5159 217.812 28.6753 217.812 29.8574C217.812 30.5849 217.812 31.1987 217.812 31.6988C217.812 32.199 217.903 32.8127 218.084 33.5402C218.221 33.1765 218.448 32.5399 218.766 31.6306C219.085 30.7213 219.426 29.7665 219.789 28.7663C220.199 27.766 220.562 26.8339 220.881 25.9701C221.199 25.0608 221.426 24.4242 221.563 24.0605C221.881 23.1512 222.358 22.2873 222.995 21.4689C223.631 20.6051 224.472 20.1277 225.518 20.0367C226.2 19.9913 226.814 20.1731 227.359 20.5823C227.951 20.9915 228.451 21.5371 228.86 22.2191C229.269 22.8556 229.61 23.5376 229.883 24.2651C230.156 24.9471 230.36 25.5381 230.497 26.0383L234.179 43.0199L237.044 50.7946C237.089 50.8401 237.112 50.9765 237.112 51.2038C237.112 51.3857 237.112 51.5221 237.112 51.613C237.112 52.1586 236.976 52.7042 236.703 53.2498C236.475 53.7499 236.044 54 235.407 54C234.634 54 233.838 53.7954 233.02 53.3862C232.202 52.9315 231.633 52.3632 231.315 51.6812ZM246.66 34.0858C246.023 34.0858 245.455 34.2449 244.955 34.5632C244.455 34.8815 243.864 35.0406 243.182 35.0406C243.091 35.0406 242.841 35.0406 242.432 35.0406C242.068 34.9951 241.84 34.9724 241.75 34.9724C241.568 34.7451 241.363 34.5632 241.136 34.4268C240.908 34.2904 240.681 34.154 240.454 34.0176C240.226 33.8357 240.022 33.6311 239.84 33.4038C239.704 33.1765 239.635 32.8582 239.635 32.449C239.635 31.767 239.908 31.2214 240.454 30.8122C240.999 30.3576 241.636 29.9711 242.363 29.6528C243.091 29.3346 243.818 29.039 244.546 28.7663C245.319 28.4935 245.932 28.1752 246.387 27.8115V24.8107C246.387 21.4462 246.228 18.0817 245.91 14.7172C245.591 11.3072 245.432 7.94272 245.432 4.62369C245.432 3.71437 245.66 3.12331 246.114 2.85051C246.569 2.57771 247.183 2.44131 247.956 2.44131C248.865 2.44131 249.524 2.71411 249.933 3.2597C250.388 3.75983 250.706 4.39636 250.888 5.16929C251.07 5.89675 251.161 6.6924 251.161 7.55626C251.161 8.37465 251.184 9.07938 251.229 9.67044C251.229 10.2615 251.275 11.3072 251.366 12.8076C251.457 14.308 251.548 15.8993 251.638 17.5816C251.729 19.2638 251.82 20.8551 251.911 22.3555C252.002 23.8559 252.07 24.9016 252.116 25.4927C252.298 25.4472 252.639 25.3336 253.139 25.1517C253.684 24.9244 254.253 24.7198 254.844 24.5379C255.435 24.3106 255.98 24.106 256.481 23.9241C257.026 23.7422 257.413 23.6058 257.64 23.5149C258.822 23.0148 260.05 22.4692 261.323 21.8781C262.596 21.2416 263.892 20.9233 265.21 20.9233C266.119 20.9233 266.801 21.2416 267.256 21.8781C267.756 22.4692 268.006 23.1739 268.006 23.9923C268.006 24.5834 267.779 25.0153 267.324 25.2881C266.87 25.5609 266.392 25.8109 265.892 26.0383L253.48 30.6758C253.343 30.7668 253.207 30.8577 253.071 30.9486C252.934 30.9941 252.798 31.085 252.661 31.2214V33.4038C252.661 34.9951 252.684 36.6546 252.73 38.3824C252.821 40.0646 252.98 41.7014 253.207 43.2927C253.434 44.6567 253.684 45.9979 253.957 47.3165C254.23 48.635 254.366 49.9762 254.366 51.3402C254.366 51.7494 254.23 52.295 253.957 52.977C253.684 53.659 253.252 54 252.661 54C251.434 54 250.434 53.6363 249.661 52.9088C248.888 52.1814 248.456 51.2038 248.365 49.9762C248.138 47.612 247.887 45.0204 247.615 42.2015C247.387 39.3826 247.16 36.6774 246.933 34.0858H246.66ZM270.393 43.5655L272.917 26.0383C273.008 25.4472 273.258 25.0153 273.667 24.7425C274.121 24.4697 274.622 24.3333 275.167 24.3333C276.167 24.3333 276.963 24.6288 277.554 25.2199C278.145 25.7655 278.645 26.4475 279.055 27.2659H279.123C279.668 27.2659 280.146 27.1749 280.555 26.9931C281.01 26.7657 281.555 26.6521 282.192 26.6521C283.647 26.6521 284.874 27.1067 285.874 28.0161C286.92 28.9254 287.761 30.0393 288.398 31.3578C289.034 32.6309 289.489 34.0176 289.762 35.518C290.08 37.0184 290.239 38.3369 290.239 39.4735C290.239 40.8375 289.876 42.3606 289.148 44.0429C288.466 45.7251 287.534 47.3165 286.352 48.8169C285.215 50.3172 283.919 51.5676 282.465 52.5678C281.01 53.5681 279.532 54.0682 278.032 54.0682C276.668 54.0682 275.485 53.7499 274.485 53.1134C273.53 52.4769 272.735 51.6812 272.098 50.7264C271.507 49.7262 271.075 48.6123 270.802 47.3847C270.53 46.1571 270.393 44.9522 270.393 43.7701V43.5655ZM276.122 43.9747C276.213 44.4294 276.304 44.9522 276.395 45.5433C276.486 46.1343 276.622 46.6799 276.804 47.1801C276.986 47.6347 277.236 47.9985 277.554 48.2713C277.918 48.4986 278.418 48.4986 279.055 48.2713C279.646 47.7257 280.282 47.1119 280.964 46.4299C281.646 45.7479 282.283 45.0204 282.874 44.2475C283.51 43.4746 284.033 42.6562 284.442 41.7923C284.852 40.9285 285.056 40.0191 285.056 39.0643C285.238 37.5185 285.124 36.109 284.715 34.836C284.306 33.5175 283.715 32.5854 282.942 32.0398C282.214 31.4488 281.373 31.3806 280.419 31.8352C279.464 32.2444 278.509 33.4038 277.554 35.3134C277.009 36.4955 276.622 37.8822 276.395 39.4735C276.213 41.0194 276.122 42.4516 276.122 43.7701V43.9747Z" fill="#F70A0A"/>
<ellipse cx="136.889" cy="39.9975" rx="15.8891" ry="13.9975" fill="white"/>
<ellipse cx="136.795" cy="39.9975" rx="10.4982" ry="9.26864" fill="#F70A0A"/>
</svg>
